# xmcd
#
# Track frame offsets:
#	150
#	10588
#	23761
#	36297
#	48332
#	60845
#	73797
#	86672
#	99220
#	112095
#	122684
#	134419
#	146785
#	158969
#	169199
#	179422
#	192583
#	202753
#	214081
#	228614
#	242630
#	254602
#
# Disc length: 3553 seconds
#
# Revision: 1
# Processed by: cddbd v1.5.2PL0 Copyright (c) Steve Scherf et al.
# Submitted via: EZCDAudioConverter 3.1.7.1
#
DISCID=390ddf16
DTITLE=Otis Clay - Testify!
DYEAR=2003
DGENRE=Rhythm and Blues
TTITLE0=I Testify
TTITLE1=A Flame In Your Heart
TTITLE2=I'm Satisfied
TTITLE3=Tired Of Falling (In And Out Of Love)
TTITLE4=I Paid The Price
TTITLE5=I Don't Know What I'd Do
TTITLE6=I Lost Someone
TTITLE7=Nothing To Look Forward To
TTITLE8=It's Easier Said, Than Done
TTITLE9=Come My Dear
TTITLE10=That's How It Is (When You're In Love)
TTITLE11=Funny Life
TTITLE12=Don't Pass Me By
TTITLE13=That'll Get You What You Want
TTITLE14=Wrapped Up In Her Love
TTITLE15=A Lasting Love
TTITLE16=Show Place
TTITLE17=Cry Cry Cry
TTITLE18=This Love Of Mine
TTITLE19=Three Is A Crowd
TTITLE20=Must I Keep On Waiting
TTITLE21=Got To Find A Way
EXTD=
EXTT0=
EXTT1=
EXTT2=
EXTT3=
EXTT4=
EXTT5=
EXTT6=
EXTT7=
EXTT8=
EXTT9=
EXTT10=
EXTT11=
EXTT12=
EXTT13=
EXTT14=
EXTT15=
EXTT16=
EXTT17=
EXTT18=
EXTT19=
EXTT20=
EXTT21=
PLAYORDER=
